<?xml version="1.0" standalone="no"?><!DOCTYPE svg PUBLIC "-//W3C//DTD SVG 1.1//EN" "http://www.w3.org/Graphics/SVG/1.1/DTD/svg11.dtd"><svg t="1595296998110" class="icon" viewBox="0 0 1024 1024" version="1.1" xmlns="http://www.w3.org/2000/svg" p-id="4905" xmlns:xlink="http://www.w3.org/1999/xlink" width="48" height="48"><defs><style type="text/css"></style></defs><path d="M890.319257 1025.183719 133.679737 1025.183719c-34.781412 0-63.052874-28.224194-63.052874-63.005606L70.626863 489.278035c0-34.829686 28.271463-63.052874 63.052874-63.052874l126.105749 0L259.785486 268.590461c0-139.270469 112.94304-252.164229 252.214514-252.164229 139.270469 0 252.213509 112.89376 252.213509 252.164229l0 157.633694 126.105749 0c34.781412 0 63.052874 28.223189 63.052874 63.052874l0 472.899072C953.373137 996.959524 925.101675 1025.183719 890.319257 1025.183719L890.319257 1025.183719zM701.160634 268.590461c0-104.441789-84.718846-189.160634-189.160634-189.160634-104.490063 0-189.16164 84.718846-189.16164 189.160634l0 157.633694c182.263488 0 163.560333 0 378.321269 0L701.159629 268.590461 701.160634 268.590461zM890.319257 552.330909c0-34.829686-28.223189-63.052874-63.052874-63.052874l-63.052874 0L259.786491 489.278035l-63.052874 0c-34.829686 0-63.052874 28.223189-63.052874 63.052874l0 346.793323c0 34.781412 28.223189 63.052874 63.052874 63.052874l630.533772 0c34.829686 0 63.052874-28.271463 63.052874-63.052874L890.320263 552.330909 890.319257 552.330909zM543.52694 800.075051l0 130.576122-63.05388 0L480.47306 800.075051c-54.260973-14.08796-94.579814-62.957332-94.579814-121.637387 0-69.659371 56.446377-126.106754 126.106754-126.106754 69.659371 0 126.105749 56.447383 126.105749 126.106754C638.106754 737.118725 597.787913 785.988097 543.52694 800.075051L543.52694 800.075051zM512 615.384789c-34.830691 0-63.052874 28.222183-63.052874 63.052874 0 34.82868 28.222183 63.052874 63.052874 63.052874 34.829686 0 63.052874-28.224194 63.052874-63.052874C575.052874 643.606972 546.829686 615.384789 512 615.384789L512 615.384789z" p-id="4906" fill="#707070"></path></svg>